<svg id="Layer_1" data-name="Layer 1" xmlns="http://www.w3.org/2000/svg" xmlns:xlink="http://www.w3.org/1999/xlink" viewBox="0 0 150 60"><defs><style>.cls-1{font-size:21.72px;fill:#fff;font-family:Poppins-SemiBoldItalic, Poppins;font-weight:600;font-style:italic;}.cls-2{fill:url(#linear-gradient);}.cls-3{fill:url(#linear-gradient-2);}.cls-4{fill:url(#linear-gradient-3);}.cls-5{fill:url(#linear-gradient-4);}</style><linearGradient id="linear-gradient" x1="0.66" y1="30.93" x2="52.24" y2="11.66" gradientUnits="userSpaceOnUse"><stop offset="0" stop-color="#ffe500"/><stop offset="0.23" stop-color="#f0e000"/><stop offset="0.33" stop-color="#eae240"/><stop offset="0.46" stop-color="#f9e92d"/><stop offset="0.71" stop-color="#ffeb20"/><stop offset="1" stop-color="#e3eee2"/></linearGradient><linearGradient id="linear-gradient-2" x1="2.12" y1="34.84" x2="53.7" y2="15.57" xlink:href="#linear-gradient"/><linearGradient id="linear-gradient-3" x1="0.87" y1="31.51" x2="52.45" y2="12.24" xlink:href="#linear-gradient"/><linearGradient id="linear-gradient-4" x1="-0.17" y1="28.71" x2="51.41" y2="9.44" xlink:href="#linear-gradient"/></defs><text class="cls-1" transform="translate(28.77 44.72)"><tspan xml:space="preserve"> AvmFlyers</tspan></text><path class="cls-2" d="M3,10S19.46,25.3,36.78,21.13c0,0-.63,20.86-24.16,24.64,0,0,15.58-5.67,17.31-20.47C29.93,25.3,10,25.54,3,10Z"/><path class="cls-3" d="M15.31,36.47A18.15,18.15,0,0,1,8.88,28.8a27.43,27.43,0,0,1-4.19-3.34A20.94,20.94,0,0,0,10.5,36.4,21.58,21.58,0,0,0,13.6,39,24.77,24.77,0,0,0,15.31,36.47Z"/><path class="cls-4" d="M1.44,15.38a31.11,31.11,0,0,0,24.8,12.48,22.68,22.68,0,0,1-12.4,14.71,23.45,23.45,0,0,0,6.33-11.7S5.14,27.82,1.44,15.38Z"/><path class="cls-5" d="M22.92,18.46S26.57,13,34.81,13.34A11.18,11.18,0,0,1,40.6,15s-3.15-.32-3.49,3.47C31.94,20.42,22.92,18.46,22.92,18.46Z"/></svg>